<mxfile host="app.diagrams.net" modified="2023-11-22T01:13:01.270Z" agent="Mozilla/5.0 (Windows NT 10.0; Win64; x64) AppleWebKit/537.36 (KHTML, like Gecko) Chrome/119.0.0.0 Safari/537.36 Edg/119.0.0.0" etag="thxZVhB-XhyyDRspwdbV" version="22.1.3" type="github">
  <diagram id="C5RBs43oDa-KdzZeNtuy" name="Page-1">
    <mxGraphModel dx="1678" dy="898" grid="1" gridSize="10" guides="1" tooltips="1" connect="1" arrows="1" fold="1" page="1" pageScale="1" pageWidth="1169" pageHeight="827" math="0" shadow="0">
      <root>
        <mxCell id="WIyWlLk6GJQsqaUBKTNV-0" />
        <mxCell id="WIyWlLk6GJQsqaUBKTNV-1" parent="WIyWlLk6GJQsqaUBKTNV-0" />
        <mxCell id="TlhrCSe95SY9jLTqjl-a-2" value="" style="rounded=0;orthogonalLoop=1;jettySize=auto;html=1;fontSize=14;" parent="WIyWlLk6GJQsqaUBKTNV-1" source="TlhrCSe95SY9jLTqjl-a-0" target="TlhrCSe95SY9jLTqjl-a-5" edge="1">
          <mxGeometry relative="1" as="geometry">
            <mxPoint x="190" y="550" as="targetPoint" />
          </mxGeometry>
        </mxCell>
        <mxCell id="TlhrCSe95SY9jLTqjl-a-0" value="START" style="strokeWidth=2;html=1;shape=mxgraph.flowchart.start_1;whiteSpace=wrap;fontSize=14;fillColor=#D5E8D4;" parent="WIyWlLk6GJQsqaUBKTNV-1" vertex="1">
          <mxGeometry x="30" y="40" width="100" height="60" as="geometry" />
        </mxCell>
        <mxCell id="TlhrCSe95SY9jLTqjl-a-4" value="" style="rounded=0;orthogonalLoop=1;jettySize=auto;html=1;fontSize=14;" parent="WIyWlLk6GJQsqaUBKTNV-1" source="TlhrCSe95SY9jLTqjl-a-5" target="TlhrCSe95SY9jLTqjl-a-3" edge="1">
          <mxGeometry relative="1" as="geometry">
            <mxPoint x="310" y="550" as="sourcePoint" />
          </mxGeometry>
        </mxCell>
        <mxCell id="TlhrCSe95SY9jLTqjl-a-9" value="Dockside Monitoring &lt;br&gt;/ Port Sampling" style="rounded=0;orthogonalLoop=1;jettySize=auto;html=1;fontSize=14;" parent="WIyWlLk6GJQsqaUBKTNV-1" source="TlhrCSe95SY9jLTqjl-a-3" target="TlhrCSe95SY9jLTqjl-a-21" edge="1">
          <mxGeometry relative="1" as="geometry">
            <mxPoint x="395" y="80" as="targetPoint" />
          </mxGeometry>
        </mxCell>
        <mxCell id="TlhrCSe95SY9jLTqjl-a-12" value="At Sea Data" style="rounded=0;orthogonalLoop=1;jettySize=auto;html=1;fontSize=14;" parent="WIyWlLk6GJQsqaUBKTNV-1" source="TlhrCSe95SY9jLTqjl-a-3" target="TlhrCSe95SY9jLTqjl-a-11" edge="1">
          <mxGeometry relative="1" as="geometry" />
        </mxCell>
        <mxCell id="TlhrCSe95SY9jLTqjl-a-3" value="What Kind &lt;br style=&quot;font-size: 14px;&quot;&gt;of Data?" style="rhombus;whiteSpace=wrap;html=1;strokeWidth=2;fontSize=14;fillColor=#FFF2CC;" parent="WIyWlLk6GJQsqaUBKTNV-1" vertex="1">
          <mxGeometry x="520" y="50" width="130" height="130" as="geometry" />
        </mxCell>
        <mxCell id="TlhrCSe95SY9jLTqjl-a-5" value="Collect Data" style="rounded=1;whiteSpace=wrap;html=1;absoluteArcSize=1;arcSize=14;strokeWidth=2;fontSize=14;" parent="WIyWlLk6GJQsqaUBKTNV-1" vertex="1">
          <mxGeometry x="210" y="40" width="100" height="100" as="geometry" />
        </mxCell>
        <mxCell id="TlhrCSe95SY9jLTqjl-a-24" style="rounded=0;orthogonalLoop=1;jettySize=auto;html=1;fontSize=14;" parent="WIyWlLk6GJQsqaUBKTNV-1" source="TlhrCSe95SY9jLTqjl-a-10" target="TlhrCSe95SY9jLTqjl-a-13" edge="1">
          <mxGeometry relative="1" as="geometry" />
        </mxCell>
        <mxCell id="TlhrCSe95SY9jLTqjl-a-10" value="Andes&lt;br style=&quot;font-size: 14px;&quot;&gt;Port Sampling Application" style="image;aspect=fixed;perimeter=ellipsePerimeter;html=1;align=center;shadow=0;dashed=0;spacingTop=3;image=img/lib/active_directory/tablet_pc.svg;fontSize=14;" parent="WIyWlLk6GJQsqaUBKTNV-1" vertex="1">
          <mxGeometry x="360" y="310" width="81.9" height="112.19" as="geometry" />
        </mxCell>
        <mxCell id="TlhrCSe95SY9jLTqjl-a-14" style="rounded=0;orthogonalLoop=1;jettySize=auto;html=1;fontSize=14;" parent="WIyWlLk6GJQsqaUBKTNV-1" source="TlhrCSe95SY9jLTqjl-a-11" target="TlhrCSe95SY9jLTqjl-a-13" edge="1">
          <mxGeometry relative="1" as="geometry" />
        </mxCell>
        <mxCell id="TlhrCSe95SY9jLTqjl-a-11" value="Andes&lt;br style=&quot;font-size: 14px;&quot;&gt;Ecosystem Survey Application" style="verticalLabelPosition=bottom;sketch=0;aspect=fixed;html=1;verticalAlign=top;strokeColor=none;align=center;outlineConnect=0;shape=mxgraph.citrix.desktop;fontSize=14;" parent="WIyWlLk6GJQsqaUBKTNV-1" vertex="1">
          <mxGeometry x="80" y="277.1" width="89" height="98" as="geometry" />
        </mxCell>
        <mxCell id="TlhrCSe95SY9jLTqjl-a-17" value="Automatic import" style="rounded=0;orthogonalLoop=1;jettySize=auto;html=1;fontSize=14;entryX=0;entryY=0.5;entryDx=0;entryDy=0;entryPerimeter=0;" parent="WIyWlLk6GJQsqaUBKTNV-1" source="TlhrCSe95SY9jLTqjl-a-13" target="TlhrCSe95SY9jLTqjl-a-35" edge="1">
          <mxGeometry relative="1" as="geometry">
            <mxPoint x="404.96000000000004" y="667.3" as="targetPoint" />
          </mxGeometry>
        </mxCell>
        <mxCell id="TlhrCSe95SY9jLTqjl-a-13" value="Andes HERMAN Report (JSON)" style="shape=document;whiteSpace=wrap;html=1;boundedLbl=1;fontSize=14;fillColor=#E5CCFF;" parent="WIyWlLk6GJQsqaUBKTNV-1" vertex="1">
          <mxGeometry x="70" y="590" width="120" height="100" as="geometry" />
        </mxCell>
        <mxCell id="TlhrCSe95SY9jLTqjl-a-30" value="" style="rounded=0;orthogonalLoop=1;jettySize=auto;html=1;" parent="WIyWlLk6GJQsqaUBKTNV-1" source="TlhrCSe95SY9jLTqjl-a-35" target="TlhrCSe95SY9jLTqjl-a-29" edge="1">
          <mxGeometry relative="1" as="geometry">
            <mxPoint x="460" y="760" as="sourcePoint" />
          </mxGeometry>
        </mxCell>
        <mxCell id="TlhrCSe95SY9jLTqjl-a-22" value="Digital" style="rounded=0;orthogonalLoop=1;jettySize=auto;html=1;fontSize=14;" parent="WIyWlLk6GJQsqaUBKTNV-1" source="TlhrCSe95SY9jLTqjl-a-21" target="TlhrCSe95SY9jLTqjl-a-10" edge="1">
          <mxGeometry relative="1" as="geometry" />
        </mxCell>
        <mxCell id="TlhrCSe95SY9jLTqjl-a-23" value="Paper" style="rounded=0;orthogonalLoop=1;jettySize=auto;html=1;fontSize=14;" parent="WIyWlLk6GJQsqaUBKTNV-1" source="TlhrCSe95SY9jLTqjl-a-21" target="TlhrCSe95SY9jLTqjl-a-25" edge="1">
          <mxGeometry relative="1" as="geometry">
            <mxPoint x="710" y="460" as="targetPoint" />
          </mxGeometry>
        </mxCell>
        <mxCell id="TlhrCSe95SY9jLTqjl-a-21" value="Paper &lt;br style=&quot;font-size: 14px;&quot;&gt;or &lt;br style=&quot;font-size: 14px;&quot;&gt;Digital?" style="rhombus;whiteSpace=wrap;html=1;strokeWidth=2;fontSize=14;fillColor=#FFF2CC;" parent="WIyWlLk6GJQsqaUBKTNV-1" vertex="1">
          <mxGeometry x="740" y="261.1" width="130" height="130" as="geometry" />
        </mxCell>
        <mxCell id="TlhrCSe95SY9jLTqjl-a-28" value="Manual entry" style="rounded=0;orthogonalLoop=1;jettySize=auto;html=1;fontSize=14;entryX=0.855;entryY=0;entryDx=0;entryDy=4.35;entryPerimeter=0;" parent="WIyWlLk6GJQsqaUBKTNV-1" source="TlhrCSe95SY9jLTqjl-a-25" target="TlhrCSe95SY9jLTqjl-a-35" edge="1">
          <mxGeometry relative="1" as="geometry">
            <mxPoint x="479.03999999999996" y="672.97" as="targetPoint" />
          </mxGeometry>
        </mxCell>
        <mxCell id="TlhrCSe95SY9jLTqjl-a-25" value="Field Sheet" style="shape=document;whiteSpace=wrap;html=1;boundedLbl=1;fontSize=14;fillColor=#E5CCFF;" parent="WIyWlLk6GJQsqaUBKTNV-1" vertex="1">
          <mxGeometry x="550" y="460" width="120" height="80" as="geometry" />
        </mxCell>
        <mxCell id="TlhrCSe95SY9jLTqjl-a-32" value="" style="rounded=0;orthogonalLoop=1;jettySize=auto;html=1;" parent="WIyWlLk6GJQsqaUBKTNV-1" source="TlhrCSe95SY9jLTqjl-a-29" target="TlhrCSe95SY9jLTqjl-a-31" edge="1">
          <mxGeometry relative="1" as="geometry" />
        </mxCell>
        <mxCell id="TlhrCSe95SY9jLTqjl-a-29" value="Specimen &lt;br&gt;Laboratory&lt;br&gt;Detailing" style="rounded=1;whiteSpace=wrap;html=1;fontSize=14;" parent="WIyWlLk6GJQsqaUBKTNV-1" vertex="1">
          <mxGeometry x="700" y="580" width="160" height="90" as="geometry" />
        </mxCell>
        <mxCell id="TlhrCSe95SY9jLTqjl-a-34" value="Optional" style="rounded=0;orthogonalLoop=1;jettySize=auto;html=1;dashed=1;dashPattern=12 12;" parent="WIyWlLk6GJQsqaUBKTNV-1" source="TlhrCSe95SY9jLTqjl-a-31" target="TlhrCSe95SY9jLTqjl-a-33" edge="1">
          <mxGeometry relative="1" as="geometry" />
        </mxCell>
        <mxCell id="TlhrCSe95SY9jLTqjl-a-31" value="Otolith / Scale &lt;br&gt;annulus counts" style="rounded=1;whiteSpace=wrap;html=1;fontSize=14;" parent="WIyWlLk6GJQsqaUBKTNV-1" vertex="1">
          <mxGeometry x="930" y="500" width="160" height="90" as="geometry" />
        </mxCell>
        <mxCell id="TlhrCSe95SY9jLTqjl-a-37" style="rounded=0;orthogonalLoop=1;jettySize=auto;html=1;" parent="WIyWlLk6GJQsqaUBKTNV-1" source="TlhrCSe95SY9jLTqjl-a-33" target="TlhrCSe95SY9jLTqjl-a-36" edge="1">
          <mxGeometry relative="1" as="geometry" />
        </mxCell>
        <mxCell id="Is-2GvXdlnTqTXQaF3ji-1" style="rounded=0;orthogonalLoop=1;jettySize=auto;html=1;" edge="1" parent="WIyWlLk6GJQsqaUBKTNV-1" source="TlhrCSe95SY9jLTqjl-a-33" target="Is-2GvXdlnTqTXQaF3ji-0">
          <mxGeometry relative="1" as="geometry" />
        </mxCell>
        <mxCell id="TlhrCSe95SY9jLTqjl-a-33" value="HERMAN &lt;br&gt;exports" style="shape=document;whiteSpace=wrap;html=1;boundedLbl=1;fontSize=14;fillColor=#E5CCFF;" parent="WIyWlLk6GJQsqaUBKTNV-1" vertex="1">
          <mxGeometry x="1020" y="342.19000000000005" width="120" height="80" as="geometry" />
        </mxCell>
        <mxCell id="TlhrCSe95SY9jLTqjl-a-35" value="HERMAN" style="shape=cylinder3;whiteSpace=wrap;html=1;boundedLbl=1;backgroundOutline=1;size=15;fillColor=#D4E1F5;" parent="WIyWlLk6GJQsqaUBKTNV-1" vertex="1">
          <mxGeometry x="410" y="620" width="100" height="100" as="geometry" />
        </mxCell>
        <mxCell id="TlhrCSe95SY9jLTqjl-a-36" value="Gulf Herring Oracle DB" style="shape=cylinder3;whiteSpace=wrap;html=1;boundedLbl=1;backgroundOutline=1;size=15;fillColor=#D4E1F5;" parent="WIyWlLk6GJQsqaUBKTNV-1" vertex="1">
          <mxGeometry x="895" y="110.00000000000006" width="100" height="100" as="geometry" />
        </mxCell>
        <mxCell id="TlhrCSe95SY9jLTqjl-a-38" value="- Length&lt;br&gt;- Sex&lt;br&gt;- Weight&lt;br&gt;- Maturity&lt;br&gt;- Gonad Weight" style="text;html=1;strokeColor=none;fillColor=none;align=left;verticalAlign=middle;whiteSpace=wrap;rounded=0;fontSize=14;" parent="WIyWlLk6GJQsqaUBKTNV-1" vertex="1">
          <mxGeometry x="870" y="620" width="150" height="90" as="geometry" />
        </mxCell>
        <mxCell id="Is-2GvXdlnTqTXQaF3ji-3" style="rounded=0;orthogonalLoop=1;jettySize=auto;html=1;" edge="1" parent="WIyWlLk6GJQsqaUBKTNV-1" source="Is-2GvXdlnTqTXQaF3ji-0" target="Is-2GvXdlnTqTXQaF3ji-2">
          <mxGeometry relative="1" as="geometry" />
        </mxCell>
        <mxCell id="Is-2GvXdlnTqTXQaF3ji-0" value="DFO Dots" style="shape=cylinder3;whiteSpace=wrap;html=1;boundedLbl=1;backgroundOutline=1;size=15;fillColor=#D4E1F5;" vertex="1" parent="WIyWlLk6GJQsqaUBKTNV-1">
          <mxGeometry x="1140" y="200.00000000000006" width="100" height="100" as="geometry" />
        </mxCell>
        <mxCell id="Is-2GvXdlnTqTXQaF3ji-2" value="Otolith annotations" style="rounded=1;whiteSpace=wrap;html=1;absoluteArcSize=1;arcSize=14;strokeWidth=2;fontSize=14;" vertex="1" parent="WIyWlLk6GJQsqaUBKTNV-1">
          <mxGeometry x="1090" y="20" width="100" height="100" as="geometry" />
        </mxCell>
      </root>
    </mxGraphModel>
  </diagram>
</mxfile>
